<svg xmlns="http://www.w3.org/2000/svg" xmlns:xlink="http://www.w3.org/1999/xlink" width="1920" zoomAndPan="magnify" viewBox="0 0 1440 809.999993" height="1080" preserveAspectRatio="xMidYMid meet" version="1.0"><defs><g/></defs><g fill="#ff1616" fill-opacity="1"><g transform="translate(53.947378, 704.613169)"><g><path d="M 715.296875 0 L 36.828125 0 L 36.828125 -144.859375 L 425.171875 -441.953125 L 36.828125 -441.953125 L 36.828125 -586.8125 L 715.296875 -586.8125 L 715.296875 -441.953125 L 326.546875 -144.859375 L 715.296875 -144.859375 Z M 715.296875 0 "/></g></g></g><g fill="#ff1616" fill-opacity="1"><g transform="translate(638.439979, 704.613169)"><g><path d="M 387.9375 12.6875 C 308.539062 12.6875 244.5625 4.160156 196 -12.890625 C 147.445312 -29.941406 110.484375 -53.398438 85.109375 -83.265625 C 59.742188 -113.140625 42.695312 -147.582031 33.96875 -186.59375 L 295.453125 -186.59375 C 314.816406 -158.769531 345.644531 -144.859375 387.9375 -144.859375 C 430.21875 -144.859375 461.039062 -158.769531 480.40625 -186.59375 C 482.050781 -189.320312 482.875 -191.78125 482.875 -193.96875 C 482.875 -201.332031 473.117188 -206.851562 453.609375 -210.53125 C 434.097656 -214.21875 404.976562 -217.015625 366.25 -218.921875 C 317.414062 -221.109375 266.125 -226.296875 212.375 -234.484375 C 92.613281 -253.023438 32.734375 -301.171875 32.734375 -378.921875 C 32.734375 -385.472656 33.144531 -392.429688 33.96875 -399.796875 C 42.695312 -438.804688 59.742188 -473.25 85.109375 -503.125 C 110.484375 -533 147.445312 -556.457031 196 -573.5 C 244.5625 -590.550781 308.539062 -599.078125 387.9375 -599.078125 C 467.320312 -599.078125 531.289062 -590.550781 579.84375 -573.5 C 628.40625 -556.457031 665.367188 -533 690.734375 -503.125 C 716.109375 -473.25 733.160156 -438.804688 741.890625 -399.796875 L 480.40625 -399.796875 C 461.039062 -427.617188 430.21875 -441.53125 387.9375 -441.53125 C 345.644531 -441.53125 314.816406 -427.617188 295.453125 -399.796875 C 294.085938 -397.617188 293.40625 -395.570312 293.40625 -393.65625 C 293.40625 -387.113281 302.75 -382.269531 321.4375 -379.125 C 340.125 -375.988281 367.675781 -373.328125 404.09375 -371.140625 C 440.507812 -368.960938 479.316406 -365.414062 520.515625 -360.5 C 561.710938 -355.59375 600.242188 -347.070312 636.109375 -334.9375 C 671.984375 -322.800781 700.015625 -304.863281 720.203125 -281.125 C 736.023438 -262.84375 743.9375 -239.65625 743.9375 -211.5625 C 743.9375 -203.644531 743.253906 -195.320312 741.890625 -186.59375 C 733.160156 -147.582031 716.109375 -113.140625 690.734375 -83.265625 C 665.367188 -53.398438 628.40625 -29.941406 579.84375 -12.890625 C 531.289062 4.160156 467.320312 12.6875 387.9375 12.6875 Z M 387.9375 12.6875 "/></g></g></g><g fill="#ffffff" fill-opacity="1"><g transform="translate(-8.026818, 626.773361)"><g><path d="M 715.296875 0 L 36.828125 0 L 36.828125 -144.859375 L 425.171875 -441.953125 L 36.828125 -441.953125 L 36.828125 -586.8125 L 715.296875 -586.8125 L 715.296875 -441.953125 L 326.546875 -144.859375 L 715.296875 -144.859375 Z M 715.296875 0 "/></g></g></g><g fill="#ffffff" fill-opacity="1"><g transform="translate(576.465783, 626.773361)"><g><path d="M 387.9375 12.6875 C 308.539062 12.6875 244.5625 4.160156 196 -12.890625 C 147.445312 -29.941406 110.484375 -53.398438 85.109375 -83.265625 C 59.742188 -113.140625 42.695312 -147.582031 33.96875 -186.59375 L 295.453125 -186.59375 C 314.816406 -158.769531 345.644531 -144.859375 387.9375 -144.859375 C 430.21875 -144.859375 461.039062 -158.769531 480.40625 -186.59375 C 482.050781 -189.320312 482.875 -191.78125 482.875 -193.96875 C 482.875 -201.332031 473.117188 -206.851562 453.609375 -210.53125 C 434.097656 -214.21875 404.976562 -217.015625 366.25 -218.921875 C 317.414062 -221.109375 266.125 -226.296875 212.375 -234.484375 C 92.613281 -253.023438 32.734375 -301.171875 32.734375 -378.921875 C 32.734375 -385.472656 33.144531 -392.429688 33.96875 -399.796875 C 42.695312 -438.804688 59.742188 -473.25 85.109375 -503.125 C 110.484375 -533 147.445312 -556.457031 196 -573.5 C 244.5625 -590.550781 308.539062 -599.078125 387.9375 -599.078125 C 467.320312 -599.078125 531.289062 -590.550781 579.84375 -573.5 C 628.40625 -556.457031 665.367188 -533 690.734375 -503.125 C 716.109375 -473.25 733.160156 -438.804688 741.890625 -399.796875 L 480.40625 -399.796875 C 461.039062 -427.617188 430.21875 -441.53125 387.9375 -441.53125 C 345.644531 -441.53125 314.816406 -427.617188 295.453125 -399.796875 C 294.085938 -397.617188 293.40625 -395.570312 293.40625 -393.65625 C 293.40625 -387.113281 302.75 -382.269531 321.4375 -379.125 C 340.125 -375.988281 367.675781 -373.328125 404.09375 -371.140625 C 440.507812 -368.960938 479.316406 -365.414062 520.515625 -360.5 C 561.710938 -355.59375 600.242188 -347.070312 636.109375 -334.9375 C 671.984375 -322.800781 700.015625 -304.863281 720.203125 -281.125 C 736.023438 -262.84375 743.9375 -239.65625 743.9375 -211.5625 C 743.9375 -203.644531 743.253906 -195.320312 741.890625 -186.59375 C 733.160156 -147.582031 716.109375 -113.140625 690.734375 -83.265625 C 665.367188 -53.398438 628.40625 -29.941406 579.84375 -12.890625 C 531.289062 4.160156 467.320312 12.6875 387.9375 12.6875 Z M 387.9375 12.6875 "/></g></g></g></svg>